<?xml version="1.0" encoding="UTF-8"?>
<svg width="512" height="512" viewBox="0 0 512 512" xmlns="http://www.w3.org/2000/svg">
  <defs>
    <linearGradient id="bitcoinGradient" x1="0%" y1="0%" x2="100%" y2="100%">
      <stop offset="0%" style="stop-color:#ff1493;stop-opacity:1" />
      <stop offset="100%" style="stop-color:#ff69b4;stop-opacity:1" />
    </linearGradient>
    <filter id="glow">
      <feGaussianBlur stdDeviation="3" result="coloredBlur"/>
      <feMerge> 
        <feMergeNode in="coloredBlur"/>
        <feMergeNode in="SourceGraphic"/> 
      </feMerge>
    </filter>
  </defs>
  
  <!-- Background -->
  <rect width="512" height="512" fill="#2d0a1f"/>
  
  <!-- 3D Bitcoin Cube -->
  <g transform="translate(256, 256)">
    <!-- 3D cube -->
    <g transform="translate(-96, -64) scale(8)">
      <!-- Top face -->
      <path d="M0 8 L12 2 L24 8 L12 14 Z" fill="url(#bitcoinGradient)" opacity="0.9" filter="url(#glow)"/>
      
      <!-- Left face -->
      <path d="M0 8 L12 14 L12 26 L0 20 Z" fill="#ff1493" opacity="0.8"/>
      
      <!-- Right face -->
      <path d="M12 14 L24 8 L24 20 L12 26 Z" fill="#ff69b4" opacity="0.9"/>
      
      <!-- Bitcoin B symbol -->
      <g transform="translate(8, 12)" fill="white">
        <path d="M0 0 L0 8 M0 1 L4 1 Q5 1 5 2.5 Q5 4 4 4 L0 4 M0 4 L5 4 Q6 4 6 5.5 Q6 7 5 7 L0 7" 
              stroke="white" stroke-width="1.5" fill="none"/>
        <circle cx="2" cy="2.5" r="0.8" fill="white"/>
        <circle cx="2.5" cy="5.5" r="0.8" fill="white"/>
      </g>
    </g>
  </g>
</svg>